####
#
# OBJ File Generated by Meshlab
#
####
# Object cornell_box222.obj
#
# Vertices: 300
# Faces: 50
#
####
vn 0.000000 1.000000 0.000000
v 0.000000 0.000000 0.000000
vn 0.000000 0.000000 1.000000
v 1.000000 0.000000 0.000000
vn -1.000000 0.000000 0.000000
v 1.000000 0.000000 1.000000
vn 1.000000 0.000000 0.000000
v 0.000000 0.000000 1.000000
vn 1.000000 0.000000 0.000000
v 0.000000 1.000000 0.000000
vn 0.000000 -1.000000 0.000000
v 1.000000 1.000000 0.000000
vn 0.000000 -1.000000 0.000000
v 0.000000 1.000000 1.000000
vn 0.000000 -1.000000 0.000000
v 1.000000 1.000000 1.000000
vn 0.368124 0.000000 -0.929777
v 0.184046 0.010000 0.092455
vn 0.929777 0.000000 0.368124
v 0.416490 0.010000 0.184486
vn 0.000000 -1.000000 0.000000
v 0.324459 0.010000 0.416930
vn -0.929775 0.000000 -0.368128
v 0.092014 0.010000 0.324899
vn 0.000000 1.000000 0.000000
v 0.184046 0.260000 0.092455
vn 0.368124 0.000000 -0.929777
v 0.416490 0.260000 0.184486
vn -0.929775 0.000000 -0.368128
v 0.092014 0.260000 0.324899
vn -0.368123 0.000000 0.929777
v 0.324459 0.260000 0.416930
vn 0.000000 0.000000 0.000000
v 0.571577 0.155885 0.669615
vn 0.000000 0.000000 0.000000
v 0.571577 0.155885 0.369615
vn 0.000000 0.000000 0.000000
v 0.571577 0.194705 0.664500
vn 0.000000 0.000000 0.000000
v 0.590987 0.189500 0.664500
vn 0.000000 0.000000 0.000000
v 0.605192 0.175295 0.664500
vn 0.000000 0.000000 0.000000
v 0.610397 0.155885 0.664500
vn 0.000000 0.000000 0.000000
v 0.605192 0.136475 0.664500
vn 0.000000 0.000000 0.000000
v 0.590987 0.122270 0.664500
vn 0.000000 0.000000 0.000000
v 0.571577 0.117065 0.664500
vn 0.000000 0.000000 0.000000
v 0.552167 0.122270 0.664500
vn 0.000000 0.000000 0.000000
v 0.537962 0.136475 0.664500
vn 0.000000 0.000000 0.000000
v 0.532757 0.155885 0.664500
vn 0.000000 0.000000 0.000000
v 0.537962 0.175295 0.664500
vn 0.000000 0.000000 0.000000
v 0.552167 0.189500 0.664500
vn 0.000000 0.000000 0.000000
v 0.571577 0.230885 0.649515
vn 0.000000 0.000000 0.000000
v 0.609077 0.220835 0.649515
vn 0.000000 0.000000 0.000000
v 0.636527 0.193385 0.649515
vn 0.000000 0.000000 0.000000
v 0.646577 0.155885 0.649515
vn 0.000000 0.000000 0.000000
v 0.636527 0.118385 0.649515
vn 0.000000 0.000000 0.000000
v 0.609077 0.090935 0.649515
vn 0.000000 0.000000 0.000000
v 0.571577 0.080885 0.649515
vn 0.000000 0.000000 0.000000
v 0.534077 0.090935 0.649515
vn 0.000000 0.000000 0.000000
v 0.506627 0.118385 0.649515
vn 0.000000 0.000000 0.000000
v 0.496577 0.155885 0.649515
vn 0.000000 0.000000 0.000000
v 0.506627 0.193385 0.649515
vn 0.000000 0.000000 0.000000
v 0.534077 0.220835 0.649515
vn 0.000000 0.000000 0.000000
v 0.571577 0.261950 0.625680
vn 0.000000 0.000000 0.000000
v 0.624617 0.247745 0.625680
vn 0.000000 0.000000 0.000000
v 0.663437 0.208925 0.625680
vn 0.000000 0.000000 0.000000
v 0.677642 0.155885 0.625680
vn 0.000000 0.000000 0.000000
v 0.663437 0.102845 0.625680
vn 0.000000 0.000000 0.000000
v 0.624617 0.064025 0.625680
vn 0.000000 0.000000 0.000000
v 0.571577 0.049820 0.625680
vn 0.000000 0.000000 0.000000
v 0.518537 0.064025 0.625680
vn 0.000000 0.000000 0.000000
v 0.479717 0.102845 0.625680
vn 0.000000 0.000000 0.000000
v 0.465512 0.155885 0.625680
vn 0.000000 0.000000 0.000000
v 0.479717 0.208925 0.625680
vn 0.000000 0.000000 0.000000
v 0.518537 0.247745 0.625680
vn 0.000000 0.000000 0.000000
v 0.571577 0.285785 0.594615
vn 0.000000 0.000000 0.000000
v 0.636527 0.268385 0.594615
vn 0.000000 0.000000 0.000000
v 0.684077 0.220835 0.594615
vn 0.000000 0.000000 0.000000
v 0.701477 0.155885 0.594615
vn 0.000000 0.000000 0.000000
v 0.684077 0.090935 0.594615
vn 0.000000 0.000000 0.000000
v 0.636527 0.043385 0.594615
vn 0.000000 0.000000 0.000000
v 0.571577 0.025985 0.594615
vn 0.000000 0.000000 0.000000
v 0.506627 0.043385 0.594615
vn 0.000000 0.000000 0.000000
v 0.459077 0.090935 0.594615
vn 0.000000 0.000000 0.000000
v 0.441677 0.155885 0.594615
vn 0.000000 0.000000 0.000000
v 0.459077 0.220835 0.594615
vn 0.000000 0.000000 0.000000
v 0.506627 0.268385 0.594615
vn 0.000000 0.000000 0.000000
v 0.571577 0.300770 0.558435
vn 0.000000 0.000000 0.000000
v 0.644027 0.281360 0.558435
vn 0.000000 0.000000 0.000000
v 0.697052 0.228335 0.558435
vn 0.000000 0.000000 0.000000
v 0.716462 0.155885 0.558435
vn 0.000000 0.000000 0.000000
v 0.697052 0.083435 0.558435
vn 0.000000 0.000000 0.000000
v 0.644027 0.030410 0.558435
vn 0.000000 0.000000 0.000000
v 0.571577 0.011000 0.558435
vn 0.000000 0.000000 0.000000
v 0.499127 0.030410 0.558435
vn 0.000000 0.000000 0.000000
v 0.446102 0.083435 0.558435
vn 0.000000 0.000000 0.000000
v 0.426692 0.155885 0.558435
vn 0.000000 0.000000 0.000000
v 0.446102 0.228335 0.558435
vn 0.000000 0.000000 0.000000
v 0.499127 0.281360 0.558435
vn 0.000000 0.000000 0.000000
v 0.571577 0.305885 0.519615
vn 0.000000 0.000000 0.000000
v 0.646577 0.285785 0.519615
vn 0.000000 0.000000 0.000000
v 0.701477 0.230885 0.519615
vn 0.000000 0.000000 0.000000
v 0.721577 0.155885 0.519615
vn 0.000000 0.000000 0.000000
v 0.701477 0.080885 0.519615
vn 0.000000 0.000000 0.000000
v 0.646577 0.025985 0.519615
vn 0.000000 0.000000 0.000000
v 0.571577 0.005885 0.519615
vn 0.000000 0.000000 0.000000
v 0.496577 0.025985 0.519615
vn 0.000000 0.000000 0.000000
v 0.441677 0.080885 0.519615
vn 0.000000 0.000000 0.000000
v 0.421577 0.155885 0.519615
vn 0.000000 0.000000 0.000000
v 0.441677 0.230885 0.519615
vn 0.000000 0.000000 0.000000
v 0.496577 0.285785 0.519615
vn 0.000000 0.000000 0.000000
v 0.571577 0.300770 0.480795
vn 0.000000 0.000000 0.000000
v 0.644027 0.281360 0.480795
vn 0.000000 0.000000 0.000000
v 0.697052 0.228335 0.480795
vn 0.000000 0.000000 0.000000
v 0.716462 0.155885 0.480795
vn 0.000000 0.000000 0.000000
v 0.697052 0.083435 0.480795
vn 0.000000 0.000000 0.000000
v 0.644027 0.030410 0.480795
vn 0.000000 0.000000 0.000000
v 0.571577 0.011000 0.480795
vn 0.000000 0.000000 0.000000
v 0.499127 0.030410 0.480795
vn 0.000000 0.000000 0.000000
v 0.446102 0.083435 0.480795
vn 0.000000 0.000000 0.000000
v 0.426692 0.155885 0.480795
vn 0.000000 0.000000 0.000000
v 0.446102 0.228335 0.480795
vn 0.000000 0.000000 0.000000
v 0.499127 0.281360 0.480795
vn 0.000000 0.000000 0.000000
v 0.571577 0.285785 0.444615
vn 0.000000 0.000000 0.000000
v 0.636527 0.268385 0.444615
vn 0.000000 0.000000 0.000000
v 0.684077 0.220835 0.444615
vn 0.000000 0.000000 0.000000
v 0.701477 0.155885 0.444615
vn 0.000000 0.000000 0.000000
v 0.684077 0.090935 0.444615
vn 0.000000 0.000000 0.000000
v 0.636527 0.043385 0.444615
vn 0.000000 0.000000 0.000000
v 0.571577 0.025985 0.444615
vn 0.000000 0.000000 0.000000
v 0.506627 0.043385 0.444615
vn 0.000000 0.000000 0.000000
v 0.459077 0.090935 0.444615
vn 0.000000 0.000000 0.000000
v 0.441677 0.155885 0.444615
vn 0.000000 0.000000 0.000000
v 0.459077 0.220835 0.444615
vn 0.000000 0.000000 0.000000
v 0.506627 0.268385 0.444615
vn 0.000000 0.000000 0.000000
v 0.571577 0.261950 0.413550
vn 0.000000 0.000000 0.000000
v 0.624617 0.247745 0.413550
vn 0.000000 0.000000 0.000000
v 0.663437 0.208925 0.413550
vn 0.000000 0.000000 0.000000
v 0.677642 0.155885 0.413550
vn 0.000000 0.000000 0.000000
v 0.663437 0.102845 0.413550
vn 0.000000 0.000000 0.000000
v 0.624617 0.064025 0.413550
vn 0.000000 0.000000 0.000000
v 0.571577 0.049820 0.413550
vn 0.000000 0.000000 0.000000
v 0.518537 0.064025 0.413550
vn 0.000000 0.000000 0.000000
v 0.479717 0.102845 0.413550
vn 0.000000 0.000000 0.000000
v 0.465512 0.155885 0.413550
vn 0.000000 0.000000 0.000000
v 0.479717 0.208925 0.413550
vn 0.000000 0.000000 0.000000
v 0.518537 0.247745 0.413550
vn 0.000000 0.000000 0.000000
v 0.571577 0.230885 0.389715
vn 0.000000 0.000000 0.000000
v 0.609077 0.220835 0.389715
vn 0.000000 0.000000 0.000000
v 0.636527 0.193385 0.389715
vn 0.000000 0.000000 0.000000
v 0.646577 0.155885 0.389715
vn 0.000000 0.000000 0.000000
v 0.636527 0.118385 0.389715
vn 0.000000 0.000000 0.000000
v 0.609077 0.090935 0.389715
vn 0.000000 0.000000 0.000000
v 0.571577 0.080885 0.389715
vn 0.000000 0.000000 0.000000
v 0.534077 0.090935 0.389715
vn 0.000000 0.000000 0.000000
v 0.506627 0.118385 0.389715
vn 0.000000 0.000000 0.000000
v 0.496577 0.155885 0.389715
vn 0.000000 0.000000 0.000000
v 0.506627 0.193385 0.389715
vn 0.000000 0.000000 0.000000
v 0.534077 0.220835 0.389715
vn 0.000000 0.000000 0.000000
v 0.571577 0.194705 0.374730
vn 0.000000 0.000000 0.000000
v 0.590987 0.189500 0.374730
vn 0.000000 0.000000 0.000000
v 0.605192 0.175295 0.374730
vn 0.000000 0.000000 0.000000
v 0.610397 0.155885 0.374730
vn 0.000000 0.000000 0.000000
v 0.605192 0.136475 0.374730
vn 0.000000 0.000000 0.000000
v 0.590987 0.122270 0.374730
vn 0.000000 0.000000 0.000000
v 0.571577 0.117065 0.374730
vn 0.000000 0.000000 0.000000
v 0.552167 0.122270 0.374730
vn 0.000000 0.000000 0.000000
v 0.537962 0.136475 0.374730
vn 0.000000 0.000000 0.000000
v 0.532757 0.155885 0.374730
vn 0.000000 0.000000 0.000000
v 0.537962 0.175295 0.374730
vn 0.000000 0.000000 0.000000
v 0.552167 0.189500 0.374730
vn 0.000000 0.000000 0.000000
v 0.746057 0.508610 0.163676
vn 0.000000 0.000000 0.000000
v 0.746057 0.008610 0.163676
vn 0.000000 0.000000 0.000000
v 0.846057 0.508610 0.163676
vn 0.000000 0.000000 0.000000
v 0.696057 0.508610 0.077073
vn 0.000000 0.000000 0.000000
v 0.696057 0.508610 0.250278
vn 0.000000 0.000000 0.000000
v 0.946057 0.008610 0.163676
vn 0.000000 0.000000 0.000000
v 0.646057 0.008610 -0.009529
vn 0.000000 0.000000 0.000000
v 0.646057 0.008610 0.336881
vn 0.000000 0.000000 0.000000
v 0.816834 0.002440 0.657331
vn 0.000000 0.000000 0.000000
v 0.933259 0.002440 0.540906
vn 0.000000 0.000000 0.000000
v 0.816834 0.328430 0.540906
vn 0.000000 0.000000 0.000000
v 0.700409 0.002440 0.540906
vn 0.000000 0.000000 0.000000
v 0.816834 -0.323550 0.540906
vn 0.000000 0.000000 0.000000
v 0.816834 0.002440 0.424481
vn -0.685583 0.244851 0.685583
v 0.816834 0.002440 0.407331
vn 0.685583 0.244851 -0.685583
v 0.933259 0.002440 0.290906
vn -0.685583 0.244851 0.685583
v 0.816834 0.328430 0.290906
vn -0.685583 0.244851 -0.685583
v 0.700409 0.002440 0.290906
vn 0.000000 0.000000 0.000000
v 0.816834 -0.323550 0.290906
vn -0.685583 0.244851 -0.685583
v 0.816834 0.002440 0.174481
vn 0.000000 -1.000000 0.000000
v 0.200000 0.995000 0.300000
vn 0.000000 -1.000000 0.000000
v 0.400000 0.995000 0.300000
vn 0.000000 -1.000000 0.000000
v 0.400000 0.995000 0.600000
vn 0.000000 -1.000000 0.000000
v 0.200000 0.995000 0.600000
vn -0.024739 -0.999558 0.016493
v 0.600000 0.995000 0.300000
vn 0.000000 -1.000000 0.000000
v 0.800000 0.995000 0.300000
vn -0.024739 -0.999558 0.016493
v 0.800000 0.995000 0.600000
vn -0.024739 -0.999558 0.016493
v 0.600000 0.999950 0.600000
vn 0.577350 0.577350 0.577350
v 0.504453 0.321803 0.772604
vn -0.356821 0.934173 0.000000
v 0.504453 0.321803 0.572604
vn -0.356821 -0.934173 0.000000
v 0.504453 -0.001803 0.772604
vn 0.577350 -0.577350 -0.577350
v 0.504453 -0.001803 0.572604
vn 0.577350 0.577350 -0.577350
v 0.666256 0.260000 0.672604
vn 0.577350 -0.577350 0.577350
v 0.666256 0.060000 0.672604
vn -0.577350 0.577350 0.577350
v 0.342650 0.260000 0.672604
vn -0.577350 -0.577350 -0.577350
v 0.342650 0.060000 0.672604
vn 0.577350 -0.577350 0.577350
v 0.604453 0.160000 0.834407
vn -0.577350 0.577350 0.577350
v 0.404453 0.160000 0.834407
vn 0.577350 0.577350 -0.577350
v 0.604453 0.160000 0.510801
vn -0.577350 -0.577350 -0.577350
v 0.404453 0.160000 0.510801
vn 0.000000 1.000000 0.000000
v 1.000000 0.000000 0.000000
vn -1.000000 0.000000 0.000000
v 1.000000 0.000000 0.000000
vn 0.000000 0.000000 0.000000
v 0.000000 0.000000 0.000000
vn 0.000000 0.000000 1.000000
v 0.000000 0.000000 0.000000
vn 1.000000 0.000000 0.000000
v 0.000000 0.000000 0.000000
vn 0.000000 0.000000 0.000000
v 0.000000 0.000000 0.000000
vn 0.000000 1.000000 0.000000
v 1.000000 0.000000 1.000000
vn 0.000000 1.000000 0.000000
v 0.000000 0.000000 1.000000
vn 0.000000 0.000000 1.000000
v 0.000000 1.000000 0.000000
vn 0.000000 -1.000000 0.000000
v 0.000000 1.000000 0.000000
vn 0.000000 0.000000 0.000000
v 0.000000 0.000000 0.000000
vn 0.000000 0.000000 1.000000
v 1.000000 1.000000 0.000000
vn -1.000000 0.000000 0.000000
v 1.000000 1.000000 0.000000
vn 0.000000 0.000000 0.000000
v 0.000000 0.000000 0.000000
vn 1.000000 0.000000 0.000000
v 0.000000 1.000000 1.000000
vn -1.000000 0.000000 0.000000
v 1.000000 1.000000 1.000000
vn 0.000000 -1.000000 0.000000
v 0.184046 0.010000 0.092455
vn -0.929775 0.000000 -0.368128
v 0.184046 0.010000 0.092455
vn 0.000000 0.000000 0.000000
v 0.000000 0.000000 0.000000
vn 0.000000 -1.000000 0.000000
v 0.416490 0.010000 0.184486
vn 0.368124 0.000000 -0.929777
v 0.416490 0.010000 0.184486
vn 0.000000 0.000000 0.000000
v 0.000000 0.000000 0.000000
vn 0.929777 0.000000 0.368124
v 0.324459 0.010000 0.416930
vn -0.368123 0.000000 0.929777
v 0.324459 0.010000 0.416930
vn 0.000000 0.000000 0.000000
v 0.000000 0.000000 0.000000
vn 0.000000 -1.000000 0.000000
v 0.092014 0.010000 0.324899
vn -0.368123 0.000000 0.929777
v 0.092014 0.010000 0.324899
vn 0.000000 0.000000 0.000000
v 0.000000 0.000000 0.000000
vn 0.368124 0.000000 -0.929777
v 0.184046 0.260000 0.092455
vn -0.929775 0.000000 -0.368128
v 0.184046 0.260000 0.092455
vn 0.000000 0.000000 0.000000
v 0.000000 0.000000 0.000000
vn 0.000000 1.000000 0.000000
v 0.416490 0.260000 0.184486
vn 0.929777 0.000000 0.368124
v 0.416490 0.260000 0.184486
vn 0.000000 0.000000 0.000000
v 0.000000 0.000000 0.000000
vn -0.368123 0.000000 0.929777
v 0.092014 0.260000 0.324899
vn 0.000000 1.000000 0.000000
v 0.092014 0.260000 0.324899
vn 0.000000 0.000000 0.000000
v 0.000000 0.000000 0.000000
vn 0.929777 0.000000 0.368124
v 0.324459 0.260000 0.416930
vn 0.000000 1.000000 0.000000
v 0.324459 0.260000 0.416930
vn 0.000000 0.000000 0.000000
v 0.000000 0.000000 0.000000
vn 0.685583 0.244851 0.685583
v 0.816834 0.002440 0.407331
vn 0.685583 0.244851 0.685583
v 0.933259 0.002440 0.290906
vn 0.685583 0.244851 0.685583
v 0.816834 0.328430 0.290906
vn 0.685583 0.244851 -0.685583
v 0.816834 0.328430 0.290906
vn -0.685583 0.244851 -0.685583
v 0.816834 0.328430 0.290906
vn 0.000000 0.000000 0.000000
v 0.000000 0.000000 0.000000
vn -0.685583 0.244851 0.685583
v 0.700409 0.002440 0.290906
vn 0.685583 0.244851 -0.685583
v 0.816834 0.002440 0.174481
vn 0.000000 -1.000000 0.000000
v 0.600000 0.995000 0.300000
vn 0.000000 -1.000000 0.000000
v 0.800000 0.995000 0.600000
vn 0.356821 0.934173 0.000000
v 0.504453 0.321803 0.572604
vn 0.577350 0.577350 -0.577350
v 0.504453 0.321803 0.572604
vn 0.000000 0.356821 -0.934173
v 0.504453 0.321803 0.572604
vn -0.577350 0.577350 -0.577350
v 0.504453 0.321803 0.572604
vn 0.000000 0.000000 0.000000
v 0.000000 0.000000 0.000000
vn 0.356821 0.934173 0.000000
v 0.504453 0.321803 0.772604
vn -0.356821 0.934173 0.000000
v 0.504453 0.321803 0.772604
vn -0.577350 0.577350 0.577350
v 0.504453 0.321803 0.772604
vn 0.000000 0.356821 0.934173
v 0.504453 0.321803 0.772604
vn 0.000000 0.000000 0.000000
v 0.000000 0.000000 0.000000
vn 0.356821 0.934173 0.000000
v 0.666256 0.260000 0.672604
vn 0.577350 0.577350 0.577350
v 0.666256 0.260000 0.672604
vn 0.934173 0.000000 0.356821
v 0.666256 0.260000 0.672604
vn 0.934173 0.000000 -0.356821
v 0.666256 0.260000 0.672604
vn 0.000000 0.000000 0.000000
v 0.000000 0.000000 0.000000
vn -0.356821 0.934173 0.000000
v 0.342650 0.260000 0.672604
vn -0.577350 0.577350 -0.577350
v 0.342650 0.260000 0.672604
vn -0.934173 0.000000 -0.356821
v 0.342650 0.260000 0.672604
vn -0.934173 0.000000 0.356821
v 0.342650 0.260000 0.672604
vn 0.000000 0.000000 0.000000
v 0.000000 0.000000 0.000000
vn 0.356821 -0.934173 0.000000
v 0.504453 -0.001803 0.772604
vn 0.577350 -0.577350 0.577350
v 0.504453 -0.001803 0.772604
vn 0.000000 -0.356821 0.934173
v 0.504453 -0.001803 0.772604
vn -0.577350 -0.577350 0.577350
v 0.504453 -0.001803 0.772604
vn 0.000000 0.000000 0.000000
v 0.000000 0.000000 0.000000
vn 0.356821 -0.934173 0.000000
v 0.504453 -0.001803 0.572604
vn -0.356821 -0.934173 0.000000
v 0.504453 -0.001803 0.572604
vn -0.577350 -0.577350 -0.577350
v 0.504453 -0.001803 0.572604
vn 0.000000 -0.356821 -0.934173
v 0.504453 -0.001803 0.572604
vn 0.000000 0.000000 0.000000
v 0.000000 0.000000 0.000000
vn 0.356821 -0.934173 0.000000
v 0.666256 0.060000 0.672604
vn 0.577350 -0.577350 -0.577350
v 0.666256 0.060000 0.672604
vn 0.934173 0.000000 -0.356821
v 0.666256 0.060000 0.672604
vn 0.934173 0.000000 0.356821
v 0.666256 0.060000 0.672604
vn 0.000000 0.000000 0.000000
v 0.000000 0.000000 0.000000
vn -0.356821 -0.934173 0.000000
v 0.342650 0.060000 0.672604
vn -0.577350 -0.577350 0.577350
v 0.342650 0.060000 0.672604
vn -0.934173 0.000000 0.356821
v 0.342650 0.060000 0.672604
vn -0.934173 0.000000 -0.356821
v 0.342650 0.060000 0.672604
vn 0.000000 0.000000 0.000000
v 0.000000 0.000000 0.000000
vn 0.934173 0.000000 -0.356821
v 0.604453 0.160000 0.510801
vn 0.577350 -0.577350 -0.577350
v 0.604453 0.160000 0.510801
vn 0.000000 -0.356821 -0.934173
v 0.604453 0.160000 0.510801
vn 0.000000 0.356821 -0.934173
v 0.604453 0.160000 0.510801
vn 0.000000 0.000000 0.000000
v 0.000000 0.000000 0.000000
vn 0.934173 0.000000 0.356821
v 0.604453 0.160000 0.834407
vn 0.577350 0.577350 0.577350
v 0.604453 0.160000 0.834407
vn 0.000000 0.356821 0.934173
v 0.604453 0.160000 0.834407
vn 0.000000 -0.356821 0.934173
v 0.604453 0.160000 0.834407
vn 0.000000 0.000000 0.000000
v 0.000000 0.000000 0.000000
vn -0.934173 0.000000 0.356821
v 0.404453 0.160000 0.834407
vn -0.577350 -0.577350 0.577350
v 0.404453 0.160000 0.834407
vn 0.000000 -0.356821 0.934173
v 0.404453 0.160000 0.834407
vn 0.000000 0.356821 0.934173
v 0.404453 0.160000 0.834407
vn 0.000000 0.000000 0.000000
v 0.000000 0.000000 0.000000
vn -0.934173 0.000000 -0.356821
v 0.404453 0.160000 0.510801
vn -0.577350 0.577350 -0.577350
v 0.404453 0.160000 0.510801
vn 0.000000 0.356821 -0.934173
v 0.404453 0.160000 0.510801
vn 0.000000 -0.356821 -0.934173
v 0.404453 0.160000 0.510801
vn 0.000000 0.000000 0.000000
v 0.000000 0.000000 0.000000
vt 0 0 0
# 300 vertices, 0 vertices normals
usemtl gray
f 191/1/191 1/1/1 197/1/197
f 197/1/197 1/1/1 198/1/198
f 199/1/199 194/1/194 202/1/202
f 202/1/202 194/1/194 2/1/2
usemtl blue
f 4/1/4 195/1/195 205/1/205
f 205/1/205 195/1/195 5/1/5
usemtl orange
f 203/1/203 192/1/192 3/1/3
f 206/1/206 203/1/203 3/1/3
usemtl gray
f 8/1/8 7/1/7 6/1/6
f 6/1/6 7/1/7 200/1/200
usemtl gray
f 207/1/207 210/1/210 11/1/11
f 207/1/207 11/1/11 216/1/216
usemtl shiny
f 9/1/9 219/1/219 14/1/14
f 9/1/9 14/1/14 211/1/211
f 208/1/208 12/1/12 15/1/15
f 208/1/208 15/1/15 220/1/220
f 10/1/10 223/1/223 213/1/213
f 223/1/223 228/1/228 213/1/213
f 217/1/217 214/1/214 225/1/225
f 214/1/214 16/1/16 225/1/225
f 226/1/226 229/1/229 222/1/222
f 226/1/226 222/1/222 13/1/13
usemtl metal
f 231/1/231 232/1/232 233/1/233
f 165/1/165 167/1/167 237/1/237
f 234/1/234 166/1/166 238/1/238
f 235/1/235 170/1/170 168/1/168
usemtl light
f 171/1/171 172/1/172 173/1/173
f 173/1/173 174/1/174 171/1/171
usemtl light
f 239/1/239 176/1/176 240/1/240
f 177/1/177 178/1/178 175/1/175
usemtl glass
f 241/1/241 246/1/246 251/1/251
f 247/1/247 180/1/180 256/1/256
f 261/1/261 266/1/266 271/1/271
f 267/1/267 181/1/181 276/1/276
f 254/1/254 273/1/273 281/1/281
f 274/1/274 253/1/253 286/1/286
f 259/1/259 278/1/278 291/1/291
f 279/1/279 258/1/258 296/1/296
f 289/1/289 293/1/293 263/1/263
f 294/1/294 288/1/288 249/1/249
f 284/1/284 298/1/298 243/1/243
f 299/1/299 283/1/283 269/1/269
f 179/1/179 287/1/287 252/1/252
f 248/1/248 185/1/185 188/1/188
f 242/1/242 183/1/183 189/1/189
f 244/1/244 297/1/297 257/1/257
f 262/1/262 184/1/184 187/1/187
f 264/1/264 292/1/292 277/1/277
f 182/1/182 282/1/282 272/1/272
f 268/1/268 186/1/186 190/1/190
# 50 faces, 0 coords texture
# End of File